<?xml version="1.0" encoding="utf-8"?>
<!-- Generator: Adobe Illustrator 27.5.0, SVG Export Plug-In . SVG Version: 6.00 Build 0)  -->
<svg version="1.1" xmlns="http://www.w3.org/2000/svg" xmlns:xlink="http://www.w3.org/1999/xlink" x="0px" y="0px"
	 viewBox="0 0 500 500" style="enable-background:new 0 0 500 500;" xml:space="preserve">
<g id="BACKGROUND">
	<rect style="fill:#0098BD;" width="500" height="500"/>
	<path style="fill:#008BAD;" d="M498.262,500H1.738C0.778,500,0,499.222,0,498.262V403.96c0-0.96,0.778-1.738,1.738-1.738h496.524
		c0.96,0,1.738,0.778,1.738,1.738v94.302C500,499.222,499.222,500,498.262,500z"/>
</g>
<g id="OBJECTS">
	<path style="fill:#008BAD;" d="M406.911,285.122H93.089c-5.754,0-10.285-4.661-10.121-10.401l5.873-204.528
		c0.153-5.333,4.762-9.648,10.295-9.648h301.728c5.533,0,10.142,4.316,10.295,9.648l5.873,204.528
		C417.196,280.46,412.665,285.122,406.911,285.122z"/>
	<g>
		
			<rect x="233.415" y="46.649" transform="matrix(0.7071 -0.7071 0.7071 0.7071 28.5106 195.2973)" style="fill:none;stroke:#1D4057;stroke-width:2;stroke-linecap:round;stroke-linejoin:round;stroke-miterlimit:10;" width="33.169" height="33.169"/>
		<path style="fill:#24506D;" d="M401.087,275.253H98.913c-5.41,0-9.795-4.385-9.795-9.795V70.339c0-5.41,4.385-9.795,9.795-9.795
			h302.173c5.41,0,9.795,4.385,9.795,9.795v195.118C410.882,270.867,406.496,275.253,401.087,275.253z"/>
		<path style="fill:#1D4057;" d="M401.087,60.544H98.913c-5.41,0-9.795,4.385-9.795,9.795v195.118c0,5.41,4.385,9.795,9.795,9.795
			h302.173c5.41,0,9.795-4.385,9.795-9.795V70.34C410.882,64.93,406.496,60.544,401.087,60.544z M407.815,262.985
			c0,5.29-4.289,9.579-9.579,9.579H101.764c-5.29,0-9.579-4.289-9.579-9.579V72.812c0-5.29,4.289-9.579,9.579-9.579h296.472
			c5.29,0,9.579,4.289,9.579,9.579V262.985z"/>
		<path style="fill:#CBCDD1;" d="M390.345,264.858H109.654c-4.953,0-8.968-4.015-8.968-8.968V79.907
			c0-4.953,4.015-8.968,8.968-8.968h280.691c4.953,0,8.968,4.015,8.968,8.968V255.89
			C399.313,260.842,395.298,264.858,390.345,264.858z"/>
		<path style="fill:#F3F5FA;" d="M386.121,260.7H113.878c-4.771,0-8.639-3.868-8.639-8.639V83.736c0-4.771,3.868-8.639,8.639-8.639
			h272.243c4.771,0,8.639,3.868,8.639,8.639v168.325C394.76,256.832,390.893,260.7,386.121,260.7z"/>
		<path style="fill:none;stroke:#FFCF00;stroke-width:2;stroke-linecap:round;stroke-linejoin:round;stroke-miterlimit:10;" d="
			M129.382,183.086c-3.147-4.625-4.987-10.211-4.987-16.226c0-15.948,12.929-28.877,28.877-28.877
			c15.948,0,28.877,12.929,28.877,28.877c0,7.257-2.677,13.888-7.097,18.961"/>
		<g>
			
				<rect x="132.649" y="91.598" style="fill:none;stroke:#CBCDD1;stroke-width:2;stroke-linecap:round;stroke-linejoin:round;stroke-miterlimit:10;" width="20.722" height="20.722"/>
			
				<line style="fill:none;stroke:#CBCDD1;stroke-width:2;stroke-linecap:round;stroke-linejoin:round;stroke-miterlimit:10;" x1="132.649" y1="112.319" x2="153.37" y2="91.598"/>
		</g>
		<g>
			
				<rect x="162.212" y="91.598" style="fill:none;stroke:#CBCDD1;stroke-width:2;stroke-linecap:round;stroke-linejoin:round;stroke-miterlimit:10;" width="20.722" height="20.722"/>
			
				<line style="fill:none;stroke:#CBCDD1;stroke-width:2;stroke-linecap:round;stroke-linejoin:round;stroke-miterlimit:10;" x1="162.212" y1="112.319" x2="182.933" y2="91.598"/>
		</g>
		<g>
			
				<rect x="191.775" y="91.598" style="fill:none;stroke:#CBCDD1;stroke-width:2;stroke-linecap:round;stroke-linejoin:round;stroke-miterlimit:10;" width="20.722" height="20.722"/>
			
				<line style="fill:none;stroke:#CBCDD1;stroke-width:2;stroke-linecap:round;stroke-linejoin:round;stroke-miterlimit:10;" x1="191.775" y1="112.319" x2="212.496" y2="91.598"/>
		</g>
		<g>
			
				<rect x="221.338" y="91.598" style="fill:none;stroke:#CBCDD1;stroke-width:2;stroke-linecap:round;stroke-linejoin:round;stroke-miterlimit:10;" width="20.722" height="20.722"/>
			
				<line style="fill:none;stroke:#CBCDD1;stroke-width:2;stroke-linecap:round;stroke-linejoin:round;stroke-miterlimit:10;" x1="221.338" y1="112.319" x2="242.059" y2="91.598"/>
		</g>
		<g>
			
				<rect x="269.486" y="139.402" style="fill:none;stroke:#CBCDD1;stroke-width:2.1204;stroke-linecap:round;stroke-linejoin:round;stroke-miterlimit:10;" width="111.461" height="50.113"/>
			
				<line style="fill:none;stroke:#CBCDD1;stroke-width:2.1204;stroke-linecap:round;stroke-linejoin:round;stroke-miterlimit:10;" x1="269.486" y1="189.514" x2="380.947" y2="139.402"/>
		</g>
		
			<polyline style="fill:none;stroke:#0098BD;stroke-width:2;stroke-linecap:round;stroke-linejoin:round;stroke-miterlimit:10;" points="
			275.471,118.111 124.396,118.111 124.396,85.806 381.071,85.806 		"/>
		<path style="fill:#F3F5FA;" d="M250,45.519L250,45.519c-1.057,0-1.922-0.865-1.922-1.922v-6.108c0-1.057,0.865-1.922,1.922-1.922
			l0,0c1.057,0,1.922,0.865,1.922,1.922v6.108C251.922,44.654,251.057,45.519,250,45.519z"/>
		
			<circle style="fill:none;stroke:#0098BD;stroke-width:2;stroke-linecap:round;stroke-linejoin:round;stroke-miterlimit:10;" cx="153.37" cy="166.07" r="6.021"/>
		
			<line style="fill:none;stroke:#0098BD;stroke-width:2;stroke-linecap:round;stroke-linejoin:round;stroke-miterlimit:10;" x1="159.391" y1="166.07" x2="201.551" y2="166.07"/>
		<g>
			<path style="fill:none;stroke:#0098BD;stroke-width:2;stroke-linecap:round;stroke-linejoin:round;stroke-miterlimit:10;" d="
				M243.277,146.388h-32.27c-5.201,0-9.456,4.255-9.456,9.456v20.453c0,3.644,2.093,6.818,5.133,8.395l-5.133,9.19l21.011-8.128
				h20.716c5.201,0,9.456-4.255,9.456-9.456v-20.453C252.733,150.643,248.478,146.388,243.277,146.388z"/>
			
				<line style="fill:none;stroke:#CBCDD1;stroke-width:2;stroke-linecap:round;stroke-linejoin:round;stroke-miterlimit:10;" x1="212.263" y1="157.909" x2="242.022" y2="157.909"/>
			
				<line style="fill:none;stroke:#CBCDD1;stroke-width:2;stroke-linecap:round;stroke-linejoin:round;stroke-miterlimit:10;" x1="212.263" y1="166.182" x2="242.022" y2="166.182"/>
			
				<line style="fill:none;stroke:#CBCDD1;stroke-width:2;stroke-linecap:round;stroke-linejoin:round;stroke-miterlimit:10;" x1="212.263" y1="174.454" x2="242.022" y2="174.454"/>
		</g>
	</g>
	<g>
		<g>
			<path style="fill:#FFD2B8;" d="M385.384,149.163c-0.202,8.211-5.35,28.005-22.534,26.808
				c-18.193-1.268-26.838-14.164-21.82-30.963c3.33-11.148,13.859-22.511,28.906-18.202
				C382.638,130.443,385.638,138.83,385.384,149.163z"/>
			<g>
				<g>
					<path style="fill:#FAC09E;" d="M362.38,169.483c-3.104,0.297-5.668,1.788-6.455,3.8c-0.665,1.702-1.049,3.436-1.273,4.9
						c-0.316,2.107-0.292,3.734-0.181,4.125c0.271,0.958,2.973,1.417,8.659,1.664c5.568,0.242,8.256-0.096,8.684-1.136
						c0.175-0.426,0.471-2.222,0.291-4.584c-0.105-1.44-0.407-3.168-0.999-4.867C370.197,170.783,366.369,169.102,362.38,169.483
						L362.38,169.483z"/>
				</g>
			</g>
			<path style="fill:#FAC09E;" d="M381.387,151.392c0.097-0.281,0.229-0.546,0.401-0.788c0.878-1.236,3.817-4.816,6.929-2.418
				c4.464,3.439-0.936,13.959-6.734,13.324c-2.027-0.222-3.295-2.322-2.628-4.249L381.387,151.392z"/>
			<path style="fill:#FAC09E;" d="M343.561,143.784c0.057-0.291,0.076-0.588,0.049-0.883c-0.138-1.51-0.878-6.082-4.773-5.575
				c-5.589,0.728-6.211,12.536-0.879,14.903c1.864,0.828,4.015-0.35,4.408-2.351L343.561,143.784z"/>
			<path style="fill:#E3B800;" d="M342.948,140.04c0,0-0.312,3.939,1.001,11.3c1.313,7.362,2.808,14.073,14.558,16.561
				c11.75,2.488,22.552,0.425,25.617-7.962c1.908-5.223,2.779-10.483,2.779-10.483s1.876-7.769-1.871-17.306
				C381.175,122.336,347.672,111.638,342.948,140.04z"/>
		</g>
		<g>
			<path style="fill:#FFD2B8;" d="M284.826,139.223c-0.226,5.658,0.94,13.36,4.488,21.113c1.82,3.829,4.19,7.623,7.008,11.085
				c2.803,3.484,6.089,6.544,9.463,9.225c3.387,2.669,6.891,4.944,10.281,6.793c3.392,1.847,6.649,3.328,9.574,4.516
				c5.865,2.321,10.38,3.491,12.244,3.932c4.834,1.118,8.469,0.947,10.912-0.221c2.449-1.171,3.698-3.344,3.911-6.419
				c0.215-3.083-0.459-5.369-2.182-7.072c-1.726-1.707-4.52-2.826-8.584-3.766c-1.567-0.37-5.414-1.173-10.414-2.729
				c-4.968-1.593-11.097-3.968-16.836-7.553c-2.865-1.786-5.692-3.808-8.184-6.146c-2.508-2.323-4.747-4.895-6.687-7.578
				c-3.77-5.428-6.212-11.335-7.695-16.136L284.826,139.223z"/>
		</g>
		<path style="fill:#FAC09E;" d="M331.528,175.679c-1.75-0.561-3.647-1.225-5.617-1.999c-1.098,4.124-2.542,10.465-3.124,17.057
			c0.977,0.432,1.936,0.845,2.853,1.217c5.865,2.321,10.38,3.491,12.244,3.932c1.172,0.271,2.271,0.464,3.303,0.587
			c0.62-2.007,1.235-4.723,1.665-8.389c0.508-4.327,0.101-7.464-0.456-9.565c-0.154-0.037-0.297-0.076-0.455-0.112
			C340.375,178.038,336.528,177.235,331.528,175.679z"/>
		<g>
			<path style="fill:#FAC09E;" d="M424.257,245.63c-0.212-2.313-0.488-5.024-1.017-7.946c-0.328-1.438-0.688-2.94-1.078-4.491
				c-0.201-0.773-0.384-1.57-0.619-2.356c-0.263-0.776-0.53-1.561-0.798-2.353c-2.041-6.425-5.298-12.968-8.839-18.857
				c-1.745-2.973-3.683-5.685-5.485-8.245c-1.903-2.47-3.67-4.794-5.384-6.72c-3.347-3.93-6.13-6.599-7.293-7.678
				c-3.04-2.767-5.778-4.102-8.194-4.111c-2.399-0.013-4.466,1.293-6.225,3.824c-1.765,2.538-2.498,4.749-2.128,6.911
				c0.369,2.144,1.837,4.251,4.449,6.628c1.001,0.93,3.539,3.089,6.747,6.244c1.646,1.541,3.363,3.404,5.269,5.368
				c1.798,2.045,3.785,4.197,5.636,6.561c7.735,9.257,14.159,21.143,17.81,28.981L424.257,245.63z"/>
		</g>
		<path style="fill:#E6B293;" d="M406.391,201.343c-1.891-2.455-3.649-4.765-5.354-6.681c-3.347-3.93-6.13-6.599-7.293-7.678
			c-2.074-1.888-4.004-3.094-5.791-3.682c-0.933,11.271,0.255,19.365,1.383,24.092c1.36,1.342,2.779,2.859,4.325,4.452
			c1.798,2.045,3.785,4.197,5.636,6.561c0.433,0.519,0.861,1.048,1.286,1.582C404.941,212.037,406.12,205.281,406.391,201.343z"/>
		<path style="fill:#F3F5FA;" d="M358.43,343.253c0,0-10.75,7-19,7.75s-5.25,6.739,0,8.119c5.25,1.381,34.455,0,34.455,0
			s1.5-10.119-2.5-15.869H358.43z"/>
		<path style="fill:#CBCDD1;" d="M373.885,356.388c0,0-29.204,1.38-34.454,0c-2.186-0.575-3.979-1.949-4.734-3.412
			c-1.389,2.105,1.145,5.202,4.734,6.146c5.25,1.38,34.454,0,34.454,0s0.376-2.537,0.249-5.792
			C374.066,355.165,373.885,356.388,373.885,356.388z"/>
		<path style="fill:#F3F5FA;" d="M406.731,342.279c0,0-0.093,2.128-5.254,6.697c-1.721,1.523-5.783,1.858-7.622,2.81
			c-7.358,3.806-2.321,8.221,3.063,7.52c2.03-0.265,10.76,0.377,10.76,0.377c9.063-3.767,19.353-8.536,19.353-8.536
			s-2.428-9.938-8.301-13.754L406.731,342.279z"/>
		<path style="fill:#CBCDD1;" d="M426.076,348.137c-2.298,1.058-10.98,5.029-18.764,8.265c0,0-8.729-0.642-10.76-0.377
			c-2.406,0.314-4.739-0.396-5.931-1.615c-1.811,2.926,2.136,5.438,6.295,4.896c2.03-0.265,10.76,0.377,10.76,0.377
			c9.063-3.767,19.353-8.536,19.353-8.536S426.726,349.906,426.076,348.137z"/>
		<path style="fill:#BD3546;" d="M346.986,252.095c0,0-2.292,36.057,0,48.38c2.292,12.323,5.578,43.757,5.578,43.757
			s3.31,2.126,10.714,2.126c10.298,0,12.28-2.126,12.28-2.126s-6.409-34.628-5.846-41.931c0.562-7.303,3.061-25.103,3.061-25.103
			s5.86,22.821,8.298,28.297c2.438,5.477,20.768,38.736,20.768,38.736s15.941-0.397,18.888-8.156c0,0-13.337-31.036-18.888-35.6
			c0,0-3.591-35.6-7.081-48.38H346.986z"/>
		<path style="fill:#942937;" d="M369.711,302.3c0.049-0.632,0.113-1.346,0.187-2.116c-2.087,3.836-5.404,3.734-5.404,3.734
			c4.735,0.163,6.623,13.492,6.623,13.492v-0.003C370.176,310.793,369.514,304.863,369.711,302.3z"/>
		<path style="fill:#942937;" d="M407.888,309.307c-2.318-4.182-4.491-7.551-6.049-8.832c0,0-0.201-1.985-0.55-5.163
			c-1.602,6.919-5.446,6.321-5.446,6.321C403.999,303.263,407.88,309.294,407.888,309.307z"/>
		<path style="fill:#942937;" d="M394.758,252.095h-47.772c0,0-0.454,7.152-0.756,16.17c5.863,1.123,24.774,4.015,51.755,0.972
			C396.977,262.472,395.863,256.139,394.758,252.095z"/>
		<path style="fill:#0098BD;" d="M365.709,180.253c-5.972,0.125-7.129,0.766-21.969-4.507c0,0-7.589,55.081-0.824,87.747
			c0,0,22.044,5.36,56.398,1.056c0,0-14.061-50.963-14.187-84.963L365.709,180.253z"/>
		<path style="fill:#0083A3;" d="M342.916,263.493c0,0,22.044,5.36,56.398,1.056c0,0-4.863-17.63-8.895-39.067
			c-1.21,8.053-0.44,20.17-0.907,28.574C388.896,265.138,342.916,263.493,342.916,263.493z"/>
		<path style="fill:#0083A3;" d="M343.74,175.746c0,0-8.74-1.993-13.74-6.243c0,0-4.5,13.5-4.75,26.25c0,0,5.623,3.5,16.311,6.25
			c0,0,2.767-2.833,4.004-13.376C346.619,179.648,343.74,175.746,343.74,175.746z"/>
		<path style="fill:#0083A3;" d="M385.126,179.586c0,0,12.874,2.667,18.374,15.167c0,0,1.25,10.5-6.75,24l-8.782-9.329
			C387.968,209.424,383.347,199.169,385.126,179.586"/>
		<path style="fill:#FAC09E;" d="M417.196,245.721c0,0-3.473,2.605-2.952,7.12c0.521,4.515-1.91,6.513-0.868,7.858
			c1.042,1.346,3.126-1.433,3.821-4.385c0,0,2.695,2.845,2.802,11.733c0.012,0.976,1.157,1.519,1.915,0.904
			c0.812-0.659,1.691-1.573,2.229-2.73c1.216-2.613,2.952-2.961,3.821-4.35c0.868-1.389,1.042-5.21,0-8.857
			c-1.042-3.647-4.689-8.336-4.689-8.336L417.196,245.721z"/>
		<path style="fill:#FFD2B8;" d="M295.059,140.784c0.397-0.824,0.684-1.799,0.746-2.934c0.246-4.539,2.979-6.099,2.178-7.6
			c-0.801-1.502-3.322,0.887-4.504,3.68L295.059,140.784z"/>
		<g>
			<path style="fill:#0098BD;" d="M289.009,125.574l-0.013,0.028c-0.243,0.522-0.869,0.75-1.391,0.507l-13.031-6.071
				c-0.522-0.243-0.75-0.869-0.507-1.391l0.013-0.028c0.243-0.522,0.869-0.75,1.391-0.507l13.031,6.071
				C289.024,124.426,289.252,125.052,289.009,125.574z"/>
			<path style="fill:#1D4057;" d="M291.714,126.816l-0.027,0.058c-0.503,1.079-1.797,1.55-2.876,1.048l-11.006-5.128
				c-1.079-0.503-1.551-1.797-1.048-2.876l0.027-0.058c0.503-1.079,1.797-1.55,2.876-1.048l11.006,5.128
				C291.745,124.443,292.216,125.737,291.714,126.816z"/>
			<path style="fill:#24506D;" d="M303.178,132.138l-0.042,0.09c-0.784,1.682-2.801,2.417-4.483,1.633l-17.156-7.993
				c-1.682-0.784-2.417-2.801-1.633-4.483l0.042-0.09c0.784-1.682,2.801-2.417,4.483-1.633l17.156,7.993
				C303.227,128.439,303.962,130.456,303.178,132.138z"/>
		</g>
		<path style="fill:#FFD2B8;" d="M293.478,133.93c0,0-2.178-3.258-0.789-12.037c0.153-0.964-0.885-1.692-1.736-1.214
			c-0.911,0.513-1.931,1.266-2.657,2.316c-1.638,2.372-3.408,2.422-4.498,3.645c-1.09,1.223-1.904,4.96-1.49,8.731
			c0.414,3.77,3.22,9.006,3.22,9.006l6.167-0.005c0,0,2.172-1.116,3.362-3.588L293.478,133.93z"/>
	</g>
	<path style="fill:#007794;" d="M263.239,462.181h-90.587c-4.791,0-8.711-3.92-8.711-8.71l0,0c0-4.791,3.92-8.711,8.711-8.711
		h90.587c4.791,0,8.711,3.92,8.711,8.711l0,0C271.949,458.261,268.03,462.181,263.239,462.181z"/>
	<path style="fill:#007794;" d="M435.928,444.129H315.713c-5.638,0-10.251-4.613-10.251-10.251l0,0
		c0-5.638,4.613-10.251,10.251-10.251h120.215c5.638,0,10.251,4.613,10.251,10.251l0,0
		C446.179,439.515,441.566,444.129,435.928,444.129z"/>
	<g>
		<g>
			<path style="fill:#FAC09E;" d="M187.869,254.713c-0.097-0.281-0.229-0.546-0.401-0.788c-0.878-1.236-3.817-4.816-6.929-2.418
				c-4.465,3.439,0.936,13.959,6.734,13.324c2.027-0.222,3.295-2.322,2.628-4.249L187.869,254.713z"/>
			<path style="fill:#FFD2B8;" d="M186.047,251.053c0.202,8.211,5.35,28.005,22.534,26.808c18.193-1.268,26.838-14.164,21.82-30.963
				c-3.33-11.148-13.859-22.511-28.906-18.202C188.794,232.333,185.794,240.72,186.047,251.053z"/>
			<path style="fill:#FAC09E;" d="M227.202,245.673c-0.057-0.291-0.076-0.588-0.049-0.883c0.138-1.51,0.877-6.082,4.773-5.575
				c5.589,0.728,6.21,12.536,0.879,14.903c-1.864,0.828-4.015-0.35-4.408-2.351L227.202,245.673z"/>
			<path style="fill:#24506D;" d="M183.304,255.447c0,0,3.492,20.819,25.64,13.58c22.148-7.239,26.738-21.094,15.939-37.86
				S175.258,219.481,183.304,255.447z"/>
			<path style="fill:#1D4057;" d="M182.488,250.705c0.631,0.105,1.275,0.173,1.936,0.173c6.463,0,11.702-5.239,11.702-11.702
				c0-4.806-2.9-8.931-7.043-10.732C184.214,233.139,181.28,240.468,182.488,250.705z"/>
			<circle style="fill:#24506D;" cx="181.066" cy="235.109" r="11.702"/>
		</g>
		<g>
			<path style="fill:#FAC09E;" d="M234.539,326.567c-6.483,0.005-15.639-0.001-25.058-0.634c-4.679-0.333-9.516-0.825-13.655-1.789
				c-0.509-0.123-1.007-0.251-1.477-0.389L194,323.65c-0.098-0.028-0.285-0.088-0.242-0.085c-0.004-0.011-0.079-0.048-0.112-0.072
				c-0.169-0.107-0.309-0.219-0.413-0.345c-0.104-0.123-0.169-0.276-0.146-0.436c0.025-0.162,0.141-0.291,0.209-0.403
				c0.062-0.125,0.124-0.248,0.184-0.37c0.192-0.532,0.38-1.056,0.566-1.571c0.406-1.127,0.799-2.217,1.175-3.264
				c0.759-2.091,1.484-3.995,2.125-5.677c1.309-3.349,2.272-5.815,2.739-7.01c3.216-8.28,2.639-16.541-1.84-18.669
				c-4.441-2.115-8.154,4.746-11.554,13.505c-0.48,1.264-1.446,3.883-2.612,7.48c-0.583,1.799-1.229,3.838-1.886,6.075
				c-0.338,1.116-0.668,2.284-1.006,3.494c-0.481,1.716-0.978,3.489-1.489,5.31c-0.119,0.96-0.24,1.93-0.361,2.911
				c-0.052,0.947,0.117,1.875,0.399,2.816c0.58,1.895,1.818,3.553,3.404,4.806c1.584,1.274,3.579,2.182,5.679,2.815
				c0.538,0.156,1.031,0.308,1.613,0.443l0.634,0.141l0.533,0.105c0.709,0.136,1.404,0.245,2.094,0.342
				c5.48,0.714,10.682,0.631,15.736,0.372c10.069-0.587,19.323-2.114,25.958-3.967L234.539,326.567z"/>
		</g>
		<path style="fill:#E6B293;" d="M194.407,319.367c0.278-0.772,0.551-1.531,0.815-2.262c0.759-2.091,1.484-3.995,2.125-5.677
			c1.308-3.349,2.272-5.815,2.739-7.01c1.36-3.502,2.034-6.995,2.029-10.027l-8.007-8.07c-1.401,1.049-2.73,2.904-4.004,5.277
			c-1.632,4.793-3.003,11.55-0.974,17.831C190.782,314.548,192.746,317.578,194.407,319.367z"/>
		<g>
			<g>
				<path style="fill:#FAC09E;" d="M211.621,269.878c2.73,0.373,4.985,2.246,5.678,4.773c0.585,2.138,0.923,4.315,1.119,6.155
					c0.278,2.647,0.257,4.69,0.159,5.182c-0.239,1.204-2.615,1.78-7.616,2.09c-4.897,0.304-7.261-0.121-7.638-1.427
					c-0.154-0.536-0.414-2.792-0.256-5.759c0.092-1.809,0.358-3.979,0.879-6.113C204.746,271.511,208.112,269.4,211.621,269.878
					L211.621,269.878z"/>
			</g>
		</g>
		<path style="fill:#FAC09E;" d="M240.419,323.41c0,0-0.255,1.483,8.126-1.477c0.92-0.325,1.2,0.988,1.239,1.963
			c0.082,2.09-0.24,4.403-0.784,5.558c-1.434,3.048-0.954,3.208-1.96,4.501c-1.006,1.294-2.23,0.422-6.013,0.699
			c-3.783,0.277-9.441-1.533-9.441-1.533l-1.114-6.065L240.419,323.41z"/>
		<g>
			<path style="fill:#1D4057;" d="M244.016,327.333l0.03,0.006c0.566,0.108,0.94,0.659,0.833,1.224l-2.69,14.122
				c-0.108,0.566-0.659,0.94-1.225,0.833l-0.03-0.006c-0.566-0.108-0.94-0.659-0.833-1.224l2.69-14.122
				C242.9,327.6,243.451,327.225,244.016,327.333z"/>
			<path style="fill:#24506D;" d="M244.557,324.406l0.063,0.012c1.169,0.223,1.944,1.362,1.721,2.531l-2.272,11.927
				c-0.223,1.169-1.362,1.944-2.531,1.721l-0.063-0.012c-1.169-0.223-1.944-1.362-1.721-2.531l2.272-11.927
				C242.249,324.958,243.388,324.183,244.557,324.406z"/>
			<path style="fill:#F3F5FA;" d="M246.905,311.986l0.098,0.019c1.823,0.347,3.03,2.123,2.683,3.945l-3.542,18.593
				c-0.347,1.823-2.123,3.03-3.945,2.683l-0.098-0.019c-1.823-0.347-3.03-2.123-2.683-3.945l3.542-18.593
				C243.306,312.846,245.082,311.639,246.905,311.986z"/>
			<path style="fill:#FFD2B8;" d="M249.784,323.896c0,0-0.131-4.18-2.874-3.527c-2.743,0.653-1.854,1.505-2.359,4.238
				c-0.505,2.733-1.026,6.442,0.732,7.895C247.041,333.955,249.883,331.841,249.784,323.896z"/>
		</g>
		<path style="fill:#FAC09E;" d="M230.473,327.056c0,0,1.25-4.158,5.669-5.223c4.418-1.065,5.457-4.036,7.079-3.521
			c1.622,0.515-0.269,3.428-2.802,5.097L230.473,327.056z"/>
		<g>
			<path style="fill:#FFD2B8;" d="M232.85,444.383c1.399-9.398,1.561-24.571,1.119-38.105c-0.429-13.539-1.362-25.475-1.715-28.56
				c-0.914-7.978-4.117-11.016-10.242-10.257c-6.128,0.759-8.49,4.398-7.586,12.29c0.349,3.052,2.101,14.776,4.248,27.996
				c2.161,13.223,4.615,27.921,6.82,36.97L232.85,444.383z"/>
		</g>
		<path style="fill:#FAC09E;" d="M232.254,377.718c-0.914-7.978-4.117-11.016-10.242-10.257c-6.128,0.759-8.49,4.398-7.586,12.29
			c0.282,2.466,1.48,10.596,3.063,20.601c6.516-0.374,12.115-1.746,16.117-3.049C233.141,387.733,232.526,380.094,232.254,377.718z"
			/>
		<g>
			<path style="fill:#FFD2B8;" d="M194.808,444.476c2.076-4.28,4.317-10.101,6.175-16.516c1.883-6.414,3.546-13.414,4.88-20.061
				c2.657-13.294,4.098-25.179,4.358-28.273c0.665-8.006-1.949-11.616-8.107-11.97c-6.169-0.355-9.128,2.694-9.773,10.459
				c-0.252,3.003-0.831,14.631-1.706,27.738c-0.443,6.551-0.981,13.458-1.506,19.854c-0.504,6.408-1.138,12.236-1.414,16.793
				L194.808,444.476z"/>
		</g>
		<path style="fill:#FAC09E;" d="M202.114,367.656c-6.169-0.355-9.128,2.694-9.773,10.459c-0.182,2.17-0.536,8.856-1.048,17.34
			c5.471,2.561,10.897,3.971,16.035,4.593c1.726-9.898,2.686-17.955,2.893-20.422C210.886,371.62,208.271,368.01,202.114,367.656z"
			/>
		<path style="fill:#FFCF00;" d="M214.923,278.163c6.183-0.703,11.39,1.186,16.27,4.293c0,0,8.57,15.266,5.924,23.649
			c-2.647,8.383-9.242,10.66-6.644,20.952c9.662,38.274,9.662,62.46,9.662,62.46s-28.536,14.757-55.638-3.048
			c0,0-0.754-30.672,9.2-50.112c5.896-11.516-0.724-24.35-1.696-28.444c-0.885-3.729-5.733-25.21,12.706-29.016
			C208.081,278.199,211.5,278.552,214.923,278.163z"/>
		<path style="fill:#E3B800;" d="M192.793,379.66c1.539-45.254,12.179-39.167,4.31-64.034c-7.696-24.32,1.05-32.565,2.547-34.978
			c-12.393,6.38-8.44,23.926-7.648,27.263c0.972,4.094,7.592,16.928,1.696,28.444c-9.954,19.441-9.2,50.112-9.2,50.112
			c18.945,12.447,38.579,8.981,48.688,5.768C219.544,392.605,192.374,391.99,192.793,379.66z"/>
		<path style="fill:#E3B800;" d="M228.564,280.928c-0.787,0.49-1.409,0.875-1.813,1.132c-5.944,3.731-8.842,5.763-6.712,10.24
			c2.11,4.449,7.851,6.002,14.386,1.891c0.351-0.224,0.851-0.552,1.455-0.96c-1.905-5.817-4.687-10.777-4.687-10.777
			C230.329,281.905,229.453,281.395,228.564,280.928z"/>
		<g>
			<path style="fill:#FFD2B8;" d="M258.396,232.862c-1.302,1.702-2.73,3.698-4.237,5.895c-1.536,2.181-3.215,4.525-4.9,6.993
				c-3.504,4.853-7.202,10.107-10.936,14.87c-3.707,4.779-7.281,9.189-10.24,12.565c-2.942,3.393-5.194,5.814-6.096,6.829
				c-4.697,5.214-5.22,8.564-1.947,12.288c3.246,3.703,7.483,3.024,12.646-2.717c0.99-1.113,3.32-3.876,6.2-7.739
				c2.901-3.849,6.272-8.853,9.586-14.29c3.342-5.422,6.444-11.382,9.137-16.959c1.278-2.826,2.497-5.536,3.517-8.08
				c0.99-2.56,1.848-4.92,2.524-6.988L258.396,232.862z"/>
		</g>
		<g>
			<path style="fill:#FAC09E;" d="M258.283,229.452c-0.397-0.824-0.684-1.799-0.746-2.934c-0.246-4.538-2.979-6.099-2.178-7.6
				c0.801-1.502,3.322,0.887,4.504,3.68L258.283,229.452z"/>
			<path style="fill:#FFD2B8;" d="M261.096,236.928c0,0-3.936-0.151-4.39-6.208c-0.454-6.057,4.24-10.599,5.754-15.899
				c1.514-5.299,3.18-4.24,3.785-3.18c0.606,1.06-1.817,9.388-1.817,9.388s5.754,3.331,5.754,5.905
				C270.182,229.508,266.546,238.594,261.096,236.928z"/>
		</g>
		<path style="fill:#DEB400;" d="M204.448,447.3c-8.704-2.566-8.391-5.806-8.391-5.806c-3.461,2.34-8.094-1.02-8.094-1.02
			c-2.829,5.746-0.728,9.313-0.728,9.313l1.196,3.804l6.22,1.538l0.789-3.414c0.999,0.229,2.054,1.742,3.119,2
			c5.711,1.385,11.773,1.756,11.773,1.756S212.646,449.717,204.448,447.3z"/>
		<path style="fill:#C29D00;" d="M210.266,451.684c0,0.011,0.001,0.023,0.001,0.034c0.02,1.064-0.919,1.892-1.978,1.792
			c-2.197-0.207-6.227-0.68-10.095-1.618c-1.065-0.258-2.12-1.771-3.119-2l-0.789,3.414l-6.22-1.538l-1.196-3.804
			c0,0-0.167-0.292-0.343-0.826c0.155,1.699,0.708,2.649,0.708,2.649l1.196,3.804l6.22,1.538l0.789-3.414
			c0.999,0.229,2.054,1.742,3.119,2c5.711,1.385,11.773,1.756,11.773,1.756S211.048,453.684,210.266,451.684z"/>
		<path style="fill:#DEB400;" d="M242.703,446.135c-9.033-0.873-9.799-4.548-9.799-4.548c-2.956,2.952-7.68,0.964-7.68,0.964
			c-1.691,6.178,1.047,9.283,1.047,9.283l1.693,2.974l7.897,0.953l-1.352-3.379l0,0c2.519,1.578,5.401,2.49,8.37,2.631
			c4.103,0.194,7.202,0.458,7.202,0.458S251.21,446.957,242.703,446.135z"/>
		<g>
			<path style="fill:#C29D00;" d="M227.235,452.62l-1.693-2.974c0,0-0.308-0.357-0.653-1.051c0.435,2.151,1.382,3.239,1.382,3.239
				l1.693,2.974l7.897,0.953l-0.882-2.206L227.235,452.62z"/>
			<path style="fill:#C29D00;" d="M250.094,455.357c0.004-0.046,0.01-0.115,0.015-0.187c0.003-0.039,0.005-0.083,0.008-0.13
				c0.005-0.082,0.008-0.176,0.011-0.278c0.001-0.066,0.002-0.139,0.002-0.212c0-0.068-0.001-0.143-0.002-0.217
				c-0.002-0.128-0.007-0.264-0.015-0.409c-0.004-0.077-0.009-0.155-0.015-0.236c-0.011-0.145-0.026-0.296-0.044-0.453
				c-0.012-0.102-0.024-0.205-0.04-0.311c-0.017-0.115-0.036-0.233-0.057-0.352c-0.026-0.147-0.057-0.297-0.091-0.448
				c-0.029-0.129-0.063-0.259-0.099-0.39c-0.032-0.12-0.069-0.24-0.107-0.361c-0.05-0.158-0.106-0.317-0.167-0.477
				c-0.052-0.136-0.108-0.271-0.168-0.407c-0.045-0.101-0.088-0.203-0.138-0.304l0,0c0.339,1.707,0.165,3.098,0.165,3.098
				s-3.099-0.265-7.202-0.459c-2.969-0.14-7.156-1.015-9.675-2.594l0.523,3.389c0.66,0.402,1.472,0.673,2.353,0.866l-0.842-2.104
				c2.519,1.578,5.401,2.49,8.37,2.631c4.103,0.194,7.202,0.458,7.202,0.458s0.004-0.034,0.006-0.055
				C250.09,455.399,250.092,455.381,250.094,455.357z"/>
		</g>
	</g>
	<g>
		<path style="fill:#1D4057;" d="M328.424,433.046L328.424,433.046c-2.505,0-4.37-2.311-3.842-4.76l14.362-66.546h8.042
			l-14.72,68.205C331.876,431.754,330.275,433.046,328.424,433.046z"/>
		<path style="fill:#1D4057;" d="M369.641,433.046L369.641,433.046c-2.505,0-4.37-2.311-3.842-4.76l14.362-66.546h8.042
			l-14.72,68.205C373.092,431.754,371.492,433.046,369.641,433.046z"/>
		<path style="fill:#24506D;" d="M424.487,438.027L424.487,438.027c2.505,0,4.37-2.311,3.842-4.76l-14.362-66.546h-8.042
			l14.72,68.205C421.036,436.735,422.636,438.027,424.487,438.027z"/>
		<path style="fill:#24506D;" d="M384.271,438.027L384.271,438.027c2.505,0,4.371-2.311,3.842-4.76l-14.362-66.546h-8.042
			l14.72,68.205C380.819,436.735,382.42,438.027,384.271,438.027z"/>
		<path style="fill:#24506D;" d="M417.174,369.988h-83.233c-2.988,0-5.433-2.445-5.433-5.433l0,0c0-2.988,2.445-5.433,5.433-5.433
			h83.233c2.988,0,5.433,2.445,5.433,5.433l0,0C422.608,367.543,420.163,369.988,417.174,369.988z"/>
		<path style="fill:#24506D;" d="M411.645,381.583h-36.208c-1.465,0-2.664-1.199-2.664-2.664l0,0c0-1.465,1.199-2.664,2.664-2.664
			h36.208c1.465,0,2.664,1.199,2.664,2.664l0,0C414.309,380.384,413.11,381.583,411.645,381.583z"/>
		<path style="fill:#24506D;" d="M414.43,393.676h-36.208c-1.465,0-2.664-1.199-2.664-2.664l0,0c0-1.465,1.199-2.664,2.664-2.664
			h36.208c1.465,0,2.664,1.199,2.664,2.664l0,0C417.094,392.477,415.895,393.676,414.43,393.676z"/>
		<path style="fill:#24506D;" d="M418.063,405.768h-36.208c-1.465,0-2.664-1.199-2.664-2.664l0,0c0-1.465,1.199-2.664,2.664-2.664
			h36.208c1.465,0,2.664,1.199,2.664,2.664l0,0C420.727,404.57,419.528,405.768,418.063,405.768z"/>
		<path style="fill:#24506D;" d="M419.943,417.861h-36.208c-1.465,0-2.664-1.199-2.664-2.664l0,0c0-1.465,1.199-2.664,2.664-2.664
			h36.208c1.465,0,2.664,1.199,2.664,2.664l0,0C422.608,416.663,421.409,417.861,419.943,417.861z"/>
		<path style="fill:#24506D;" d="M421.275,429.954h-36.208c-1.465,0-2.664-1.199-2.664-2.664l0,0c0-1.465,1.199-2.664,2.664-2.664
			h36.208c1.465,0,2.664,1.199,2.664,2.664l0,0C423.94,428.755,422.741,429.954,421.275,429.954z"/>
	</g>
	<path style="fill:#007794;" d="M131.344,426.954H40.757c-4.791,0-8.711-3.92-8.711-8.711l0,0c0-4.791,3.92-8.711,8.711-8.711
		h90.587c4.791,0,8.711,3.92,8.711,8.711l0,0C140.055,423.034,136.135,426.954,131.344,426.954z"/>
	<g>
		<g>
			<path style="fill:#FFD2B8;" d="M47.725,313.598c0.517-2.097,1.012-4.498,1.479-7.098c0.57-2.571,1.187-5.35,1.828-8.241
				c1.463-5.711,3.156-11.751,5.253-17.235c2.101-5.48,4.427-10.425,6.464-14.219c2.102-3.752,3.772-6.425,4.47-7.501
				c1.736-2.855,2.556-5.053,2.314-7.156c-0.227-2.089-1.468-4.031-3.722-6.147c-2.247-2.11-4.579-2.915-6.937-2.302
				c-2.339,0.618-4.765,2.638-6.914,6.164c-0.868,1.35-2.726,4.744-4.809,9.444c-2.013,4.724-4.092,10.806-5.601,17.367
				c-1.511,6.567-2.275,13.612-2.49,20.085c-0.037,1.62,0.031,3.21,0.061,4.745c0.059,1.536,0.06,3.02,0.205,4.441
				c0.304,2.844,0.649,5.428,1.036,7.644L47.725,313.598z"/>
		</g>
		<path style="fill:#701E1E;" d="M104.638,402.534c0,0,10.75,7,19,7.75s5.25,6.739,0,8.119c-4.086,1.075-22.685,0.476-30.729,0.158
			c-2.21-0.087-3.967-1.881-3.997-4.093c-0.048-3.466,0.373-8.486,2.772-11.935H104.638z"/>
		<path style="fill:#5C1919;" d="M127.985,411.8c-0.817,1.377-2.536,2.643-4.61,3.188c-4.086,1.075-22.685,0.476-30.729,0.158
			c-1.692-0.067-3.111-1.138-3.701-2.627c-0.028,0.682-0.042,1.345-0.034,1.949c0.03,2.211,1.787,4.005,3.997,4.092
			c8.044,0.318,26.643,0.916,30.729-0.158C127.498,417.388,130.135,413.884,127.985,411.8z"/>
		<path style="fill:#852424;" d="M64.338,401.559c0,0,0.093,2.128,5.254,6.697c1.72,1.523,5.783,1.858,7.622,2.81
			c7.358,3.806,2.32,8.221-3.063,7.52c-1.121-0.146-4.285-0.016-6.894,0.13c-2.603,0.146-5.205-0.304-7.601-1.33
			c-3.939-1.687-7.817-3.414-10.722-4.726c-2.923-1.319-4.271-4.758-2.948-7.679c1.341-2.962,3.416-6.4,6.353-8.308L64.338,401.559z
			"/>
		<path style="fill:#701E1E;" d="M75.071,415.303c-1.121-0.146-4.285-0.016-6.894,0.13c-2.603,0.146-5.205-0.304-7.601-1.33
			c-3.939-1.687-7.817-3.414-10.722-4.726c-2.139-0.965-3.429-3.067-3.451-5.27c-0.144,0.293-0.286,0.587-0.416,0.873
			c-1.323,2.921,0.025,6.36,2.948,7.679c2.906,1.312,6.783,3.039,10.722,4.726c2.396,1.026,4.998,1.476,7.601,1.33
			c2.609-0.146,5.772-0.276,6.894-0.13c3.999,0.521,7.803-1.782,6.479-4.562C79.364,415.034,77.246,415.587,75.071,415.303z"/>
		<path style="fill:#1D4057;" d="M104.081,311.376c0,0,5.364,31.877,5,48.38c-0.276,12.531,1.422,43.757,1.422,43.757
			s-3.31,2.126-10.714,2.126c-10.298,0-10.28-2.126-10.28-2.126s2.409-34.628,1.846-41.931c-0.562-7.303-8.062-25.103-8.062-25.103
			s-3.391,24.372-4.298,30.298c-2.999,19.59-9.768,36.736-9.768,36.736s-15.941-0.397-18.888-8.156c0,0,4.842-13.773,7.887-34.6
			c0,0,2.163-37.607,3.081-49.38H104.081z"/>
		<path style="fill:#163042;" d="M59.911,332.508c-0.851,13.792-1.682,28.247-1.682,28.247c-0.842,5.76-1.821,10.976-2.798,15.515
			L63.19,366c0,0,7.519,0.264,7.664-7.493C70.98,351.809,62.288,336.552,59.911,332.508z"/>
		<path style="fill:#163042;" d="M106.647,328.838c-1.273-9.775-2.566-17.462-2.566-17.462H61.309
			c-0.257,3.298-0.612,8.624-0.989,14.582c3.301-0.728,9.186-1.757,16.343-1.813c0,0,2.117-1.143,2.286-3.151
			c6.993-0.58,8.816-0.543,13.41-0.255c-0.181,3.425,0.66,5.446,0.66,5.446C100.239,327.088,104.893,328.149,106.647,328.838z"/>
		<g>
			<path style="fill:#FFD2B8;" d="M152.983,197.549c-1.498,4.887-3.978,10.904-7.789,16.506c-1.967,2.77-4.232,5.443-6.763,7.885
				c-2.511,2.459-5.357,4.621-8.241,6.551c-5.775,3.876-11.937,6.58-16.941,8.442c-5.034,1.832-8.92,2.845-10.499,3.304
				c-4.099,1.165-6.892,2.442-8.566,4.243c-1.671,1.798-2.24,4.119-1.862,7.186c0.377,3.059,1.754,5.161,4.293,6.196
				c2.533,1.033,6.22,1.004,11.057-0.37c1.865-0.542,6.376-1.95,12.199-4.569c5.794-2.653,12.95-6.558,19.612-12.196
				c3.32-2.808,6.55-5.975,9.31-9.539c2.777-3.541,5.126-7.389,6.946-11.268c3.537-7.855,4.756-15.66,4.544-21.414L152.983,197.549z
				"/>
		</g>
		<path style="fill:#163042;" d="M101.371,239.027c0,0,29.752-5.825,45.611-32.488c0,0,4.65,8.067,13.893,6.733
			c0,0-4.394,35.27-57.326,48.012c0,0,0.041-3.689-1.196-14.232C101.299,238.072,101.371,239.027,101.371,239.027z"/>
		<path style="fill:#FFD2B8;" d="M153.37,193.173c0,0,2.866,3.13,3.479-5.738c0.067-0.973,1.242-1.451,1.963-0.794
			c0.773,0.704,3.033-0.31,4.062,0.444c3.534,2.589,1.755,1.59,1.893,3.222c0.309,3.661-1.322,7.286-1.837,8.773
			c-1.241,3.584-4.156,6.055-4.156,6.055l-6.009-1.387c0,0-1.867-1.574-2.473-4.251L153.37,193.173z"/>
		<g>
			<path style="fill:#FFCF00;" d="M158.838,189.136l0.006,0.03c0.12,0.563,0.679,0.926,1.242,0.806l14.06-2.996
				c0.563-0.12,0.926-0.679,0.806-1.242l-0.007-0.03c-0.12-0.563-0.679-0.926-1.242-0.806l-14.061,2.996
				C159.08,188.014,158.718,188.573,158.838,189.136z"/>
			<path style="fill:#1D4057;" d="M155.923,189.74l0.013,0.062c0.248,1.164,1.404,1.914,2.568,1.666l11.875-2.531
				c1.164-0.248,1.914-1.404,1.666-2.568l-0.013-0.062c-0.248-1.164-1.404-1.914-2.568-1.666l-11.875,2.531
				C156.425,187.421,155.675,188.576,155.923,189.74z"/>
			<path style="fill:#24506D;" d="M143.558,192.357l0.021,0.097c0.387,1.815,2.188,2.983,4.003,2.596l18.511-3.945
				c1.815-0.387,2.983-2.188,2.596-4.003l-0.021-0.097c-0.387-1.815-2.188-2.983-4.003-2.596l-18.511,3.945
				C144.339,188.741,143.171,190.543,143.558,192.357z"/>
		</g>
		<path style="fill:#FFD2B8;" d="M150.294,199.498c-0.202-0.892-0.264-1.907-0.069-3.026c0.778-4.478-1.536-6.611-0.419-7.895
			c1.117-1.284,3.039,1.609,3.564,4.596L150.294,199.498z"/>
		<path style="fill:#D3D4D9;" d="M79.402,239.534c5.972,0.125,13.697-0.667,21.969-0.507c0,0,9.332,29.16,7.781,79.37
			c0,0-18.426-5.669-52.397,1.056c0,0,3.104-46.586,3.23-80.586L79.402,239.534z"/>
		<path style="fill:#852424;" d="M80.748,243.636c2.211,16.376,0.442,49.507,0.442,49.507l6.455,16.805l4.481-17.695
			c-1.638-5.977-6.547-48.899-6.547-48.899H83.04L80.748,243.636z"/>
		<path style="fill:#1D4057;" d="M59.984,238.867c0,0-30.484,22.417-22.484,74.886c0,0,7.25-9,12.841,0
			c0,0,0.176-26.027,9.182-34.593C66.067,272.765,69.015,252.095,59.984,238.867z"/>
		<g>
			<g>
				<path style="fill:#FAC09E;" d="M80.623,225.419c2.73,0.373,4.985,2.246,5.677,4.773c0.585,2.138,0.923,4.316,1.119,6.156
					c0.278,2.647,0.257,4.69,0.159,5.182c-0.239,1.204-2.614,1.78-7.616,2.09c-4.897,0.304-7.261-0.121-7.638-1.427
					c-0.154-0.536-0.414-2.792-0.256-5.758c0.092-1.809,0.358-3.979,0.879-6.113C73.747,227.051,77.114,224.94,80.623,225.419
					L80.623,225.419z"/>
			</g>
		</g>
		<path style="fill:#C24040;" d="M87.334,243.354c0,2.372-1.923,4.294-4.294,4.294s-4.294-1.923-4.294-4.294
			s1.923-4.294,4.294-4.294S87.334,240.982,87.334,243.354z"/>
		<path style="fill:#F3F5FA;" d="M84.529,239.326l2.66-4.794c0,0,3.177,1.398,3.91,4.335l-3.312,5.807
			C87.787,244.674,86.502,240.709,84.529,239.326z"/>
		<path style="fill:#F3F5FA;" d="M77.731,245.883l2.838-6.041l-8.437-4.345l-4.026,2.862C68.106,238.36,72.96,244.94,77.731,245.883
			z"/>
		<g>
			<path style="fill:#FAC09E;" d="M94.797,203.72c0,0,1.942-6.011,6.252-4.144c6.206,2.689,1.17,18.399-7.035,13.258L94.797,203.72z
				"/>
			<path style="fill:#E8B192;" d="M94.797,203.72l-0.783,9.115c3.229,2.023,5.963,0.811,7.718-1.56
				c-0.043-1.604-0.206-3.266-0.504-4.986c-0.407-2.349-1.118-4.741-2.116-7.04C96.157,199.545,94.797,203.72,94.797,203.72z"/>
			<path style="fill:#FAC09E;" d="M56.759,212.371c0,0-3.182-5.847-7.043-3.172c-5.559,3.852,2.555,18.604,9.595,11.957
				L56.759,212.371z"/>
			<path style="fill:#E8B192;" d="M59.311,221.156l-2.552-8.785c0,0-1.324-2.417-3.295-3.429c0.017,3.699,0.81,8.87,2.996,13.647
				c0.2,0.008,0.402,0,0.605-0.018C57.814,222.308,58.569,221.857,59.311,221.156z"/>
			<path style="fill:#FFD2B8;" d="M55.298,205.472c-0.772,8.177,1.995,28.442,19.2,29.288c18.215,0.896,28.327-10.886,25.333-28.161
				c-1.986-11.464-11.095-23.994-26.546-21.498C60.243,187.209,56.27,195.182,55.298,205.472z"/>
			<path style="fill:#B35129;" d="M98.604,208.836c0,0-6.724-8.719-5.272-18.371C94.784,180.813,106.012,209.706,98.604,208.836z"/>
			<path style="fill:#852424;" d="M91.868,213.3c0.676-0.15,1.343,0.317,1.423,1.005c0.734,6.271-3.383,12.206-9.681,13.607
				c-6.298,1.401-12.542-2.229-14.537-8.219c-0.219-0.658,0.187-1.363,0.863-1.514L91.868,213.3z"/>
			<path style="fill:#C24040;" d="M91.099,222.919c-2.601-1.488-5.743-2.05-8.898-1.348c-3.155,0.702-5.763,2.543-7.487,4.993
				c2.601,1.488,5.743,2.05,8.898,1.348C86.767,227.211,89.374,225.37,91.099,222.919z"/>
			<path style="fill:#FFFFFF;" d="M69.074,219.693c0.164,0.492,0.366,0.962,0.585,1.42l23.705-5.274
				c0.004-0.508-0.012-1.019-0.073-1.535c-0.081-0.688-0.747-1.156-1.423-1.005l-21.931,4.879
				C69.261,218.33,68.856,219.036,69.074,219.693z"/>
			<g>
				<path style="fill:#452E26;" d="M69.608,208.503c0.369,1.659-0.26,3.211-1.406,3.466c-1.146,0.255-2.374-0.883-2.743-2.542
					c-0.369-1.659,0.26-3.211,1.406-3.466C68.011,205.706,69.239,206.844,69.608,208.503z"/>
			</g>
			<g>
				<path style="fill:#452E26;" d="M92.212,203.474c0.369,1.659-0.261,3.211-1.406,3.466c-1.146,0.255-2.374-0.883-2.743-2.542
					c-0.369-1.659,0.26-3.211,1.406-3.466C90.615,200.677,91.843,201.815,92.212,203.474z"/>
			</g>
		</g>
		<path style="fill:#FFD2B8;" d="M49.124,314.185c0.686,0.998,1.257,2.316,1.326,3.979c0.186,4.434,2.836,5.99,2.036,7.447
			c-0.8,1.457-3.233-0.905-4.354-3.646L49.124,314.185z"/>
		<path style="fill:#594331;" d="M50.543,320.453H36.482c-2.44,0-4.436,1.996-4.436,4.436v5.266c0,2.44,1.996,4.436,4.436,4.436
			h14.061c2.44,0,4.436-1.996,4.436-4.436v-5.266C54.979,322.45,52.983,320.453,50.543,320.453z M52.138,329.143
			c0,1.741-1.425,3.166-3.166,3.166h-10.92c-1.741,0-3.166-1.425-3.166-3.166v-3.24c0-1.741,1.425-3.166,3.166-3.166h10.92
			c1.741,0,3.166,1.425,3.166,3.166V329.143z"/>
		<path style="fill:#FFD2B8;" d="M48.133,320.964c0,0-0.063,1.995,0.308,4.77c0.126,0.944-1.167,1.591-2.529,1.492
			c-1.019-0.074-3.17-0.377-4.341-0.802c-1.427-0.519-1.925-0.001-2.975-1.208c-1.049-1.207-1.8-2.115-1.351-5.791
			c0.448-3.676,3.25-7.755,3.25-7.755l6.021,0.078c0,0,1.464,0.774,2.607,2.438L48.133,320.964z"/>
		<path style="fill:#826248;" d="M63.553,363.12H22.684c-2.504,0-4.553-2.049-4.553-4.553v-24.891c0-2.504,2.049-4.553,4.553-4.553
			h40.869c2.504,0,4.553,2.049,4.553,4.553v24.891C68.106,361.071,66.058,363.12,63.553,363.12z"/>
		<path style="fill:#594331;" d="M64.938,329.362c0.456,0.67,0.725,1.477,0.725,2.344v23.446c0,2.301-1.883,4.184-4.184,4.184
			H24.758c-2.301,0-4.184-1.883-4.184-4.184v-23.446c0-0.867,0.268-1.674,0.725-2.344c-1.828,0.592-3.168,2.295-3.168,4.313v24.891
			c0,2.504,2.049,4.553,4.553,4.553h40.869c2.504,0,4.553-2.049,4.553-4.553v-24.891C68.107,331.657,66.766,329.954,64.938,329.362z
			"/>
		<path style="fill:#1D4057;" d="M101.371,239.027c0,0,7.353,14.438,9.133,49.063c1.78,34.625,0,37.965,0,37.965
			s-2.526-2.084-15.443-3.699c0,0,5.81-57.92-4.574-84.944C90.487,237.412,95.123,237.506,101.371,239.027z"/>
		<path style="fill:#FFFFFF;stroke:#000000;stroke-miterlimit:10;" d="M70.855,239.24"/>
		<path style="fill:#FFFFFF;stroke:#000000;stroke-miterlimit:10;" d="M72.02,239.24"/>
		<path style="fill:#1D4057;" d="M69.947,237.044c0,0-2.413,0.209-9.962,1.823l-5.005,84.027c0,0,8.865-2.678,21.064-2.774
			C76.043,320.12,79.738,261.622,69.947,237.044z"/>
		<path style="fill:#24506D;" d="M90.487,237.412c0,0,3.235,15.188,6.184,46.951c0,0,5.021-9.34,5.832-23.079l-4.629-6.563
			l2.928-7.176C100.801,247.544,100.469,241.577,90.487,237.412z"/>
		<path style="fill:#24506D;" d="M69.947,237.044c0,0-2.848,5.298-4.027,10.68l3.845,5.741l-3.409,8.575
			c0,0,0.944,11.104,10.201,20.972C76.556,283.011,78.302,254.933,69.947,237.044z"/>
		<path style="fill:#24506D;" d="M55.183,295.919c0,0,5.717-2,12.35-1.333v7c0,0-8.424-0.716-12.554,1.5L55.183,295.919z"/>
		<path style="fill:#24506D;" d="M101.732,301.586v-7.136c0,0,5.768-0.864,10.268,1.303v7
			C112,302.753,106.866,301.253,101.732,301.586z"/>
		<path style="fill:#FFD2B8;" d="M158.103,184.18c-1.343-0.042-2.578,0.566-3.136,1.505c-0.747,1.258-1.637,3.107-1.637,4.782
			c0,2.887,3.476,0.867,5.418-0.594c1.942-1.461,6.637-0.313,6.704-2.167C165.512,186.036,164.026,184.366,158.103,184.18z"/>
		<path style="fill:#D46131;" d="M53.539,213.272c0,0-5.155-17.762,1.44-21.339c0,0-2.512-11.655,10.941-13.572
			s30.202,1.369,34.287-7.667c0,0,1.86,4.086,2.455,9.091c1.016,8.559-6.544,15.73-15.075,14.503
			c-7.89-1.135-19.969-1.82-26.833,2.966C60.752,197.255,58.869,221.21,53.539,213.272z"/>
		<path style="fill:#163042;" d="M90.468,388.375c2.42-9.89,5.594-24.397,4.358-27.992c-1.92-5.587-11.532-23.904-11.532-23.904
			s7.5,17.8,8.062,25.103C91.669,365.631,91.067,378.083,90.468,388.375z"/>
	</g>
</g>
<g id="DESIGNED_BY_FREEPIK">
	<g id="XMLID_76_">
		<g id="XMLID_929_">
			<path id="XMLID_958_" style="fill:#00718C;" d="M181.087,472.134c-0.246,0-0.435,0.085-0.567,0.255
				c-0.133,0.17-0.199,0.421-0.199,0.753v2.393c-0.304-0.332-0.617-0.579-0.937-0.739c-0.321-0.159-0.715-0.24-1.182-0.24
				c-0.807,0-1.458,0.283-1.953,0.849c-0.494,0.566-0.742,1.355-0.742,2.369c0,0.479,0.063,0.923,0.188,1.335
				c0.124,0.412,0.307,0.77,0.549,1.074c0.241,0.305,0.526,0.539,0.857,0.703c0.33,0.164,0.689,0.246,1.078,0.246
				c0.293,0,0.563-0.04,0.809-0.122c0.247-0.08,0.477-0.199,0.689-0.356c0.212-0.155,0.426-0.358,0.644-0.607v0.16
				c0,0.297,0.072,0.525,0.217,0.685c0.145,0.16,0.328,0.24,0.549,0.24c0.226,0,0.409-0.077,0.552-0.231
				c0.143-0.154,0.213-0.386,0.213-0.694v-7.147c0-0.305-0.066-0.534-0.199-0.69C181.52,472.212,181.332,472.134,181.087,472.134z
				 M180.021,478.975c-0.141,0.306-0.329,0.533-0.563,0.682c-0.236,0.148-0.496,0.223-0.781,0.223c-0.28,0-0.539-0.078-0.777-0.236
				c-0.237-0.154-0.424-0.387-0.561-0.695c-0.136-0.31-0.205-0.683-0.205-1.122c0-0.415,0.063-0.78,0.193-1.096
				c0.128-0.314,0.31-0.556,0.543-0.724c0.233-0.168,0.499-0.252,0.795-0.252c0.285,0,0.547,0.082,0.787,0.245
				c0.239,0.165,0.429,0.402,0.569,0.713c0.141,0.311,0.21,0.682,0.21,1.113C180.232,478.283,180.163,478.667,180.021,478.975z"/>
			<path id="XMLID_954_" style="fill:#00718C;" d="M188.452,478.054c0.233-0.122,0.35-0.385,0.35-0.793
				c0-0.438-0.113-0.87-0.338-1.294c-0.225-0.423-0.564-0.769-1.019-1.035c-0.453-0.268-0.996-0.399-1.628-0.399
				c-0.487,0-0.93,0.077-1.33,0.233c-0.4,0.156-0.737,0.381-1.01,0.674c-0.272,0.293-0.48,0.643-0.623,1.054
				c-0.143,0.409-0.213,0.853-0.213,1.332c0,1.017,0.289,1.822,0.867,2.415c0.577,0.593,1.387,0.891,2.427,0.891
				c0.456,0,0.858-0.06,1.207-0.178c0.352-0.12,0.641-0.268,0.874-0.448c0.231-0.181,0.404-0.368,0.519-0.565
				c0.115-0.196,0.172-0.366,0.172-0.514c0-0.166-0.052-0.294-0.155-0.386c-0.103-0.09-0.237-0.137-0.403-0.137
				c-0.154,0-0.273,0.036-0.356,0.107c-0.203,0.19-0.366,0.34-0.492,0.451s-0.265,0.216-0.415,0.313
				c-0.15,0.098-0.305,0.167-0.466,0.214c-0.16,0.044-0.337,0.067-0.531,0.067c-0.289,0-0.553-0.07-0.792-0.213
				c-0.239-0.143-0.432-0.355-0.576-0.636c-0.144-0.281-0.219-0.605-0.222-0.974h3.168
				C187.89,478.234,188.219,478.174,188.452,478.054z M184.297,477.315c0.055-0.547,0.212-0.96,0.472-1.238
				c0.259-0.28,0.59-0.418,0.994-0.418c0.423,0,0.764,0.137,1.024,0.411c0.259,0.275,0.409,0.69,0.448,1.245H184.297z"/>
			<path id="XMLID_952_" style="fill:#00718C;" d="M193.878,477.617c-0.319-0.17-0.729-0.316-1.231-0.439
				c-0.424-0.104-0.756-0.19-0.997-0.261c-0.242-0.07-0.434-0.161-0.576-0.27c-0.143-0.108-0.213-0.247-0.213-0.418
				c0-0.186,0.097-0.342,0.291-0.465c0.194-0.126,0.437-0.188,0.73-0.188c0.286,0,0.511,0.047,0.677,0.142
				c0.166,0.096,0.31,0.223,0.433,0.381c0.151,0.189,0.284,0.331,0.401,0.426c0.116,0.096,0.258,0.144,0.424,0.144
				c0.23,0,0.407-0.061,0.532-0.178c0.124-0.119,0.187-0.271,0.187-0.457c0-0.171-0.058-0.345-0.175-0.523
				c-0.116-0.178-0.286-0.34-0.51-0.485c-0.223-0.147-0.502-0.265-0.837-0.351c-0.333-0.088-0.71-0.131-1.13-0.131
				c-0.535,0-0.99,0.085-1.367,0.259c-0.378,0.172-0.665,0.402-0.859,0.69c-0.194,0.289-0.291,0.597-0.291,0.92
				c0,0.364,0.105,0.671,0.315,0.921c0.21,0.249,0.489,0.45,0.839,0.602c0.351,0.152,0.804,0.298,1.362,0.435
				c0.494,0.12,0.849,0.244,1.066,0.375c0.216,0.131,0.323,0.338,0.323,0.622c0,0.187-0.104,0.352-0.311,0.497
				c-0.208,0.144-0.474,0.216-0.798,0.216c-0.4,0-0.715-0.07-0.947-0.213c-0.232-0.144-0.431-0.357-0.597-0.647
				c-0.082-0.149-0.169-0.267-0.261-0.351c-0.091-0.082-0.221-0.124-0.39-0.124c-0.194,0-0.355,0.064-0.481,0.19
				c-0.128,0.126-0.191,0.278-0.191,0.456c0,0.27,0.099,0.537,0.296,0.805c0.198,0.267,0.505,0.489,0.92,0.667
				c0.415,0.179,0.914,0.268,1.495,0.268c0.609,0,1.127-0.082,1.552-0.246c0.425-0.164,0.747-0.405,0.964-0.725
				c0.218-0.318,0.326-0.701,0.326-1.148c0-0.297-0.081-0.56-0.246-0.792C194.438,477.988,194.196,477.787,193.878,477.617z"/>
			<path id="XMLID_950_" style="fill:#00718C;" d="M196.486,474.543c-0.238,0-0.431,0.081-0.579,0.243
				c-0.149,0.162-0.222,0.404-0.222,0.724v4.636c0,0.316,0.073,0.56,0.222,0.73c0.148,0.17,0.341,0.255,0.579,0.255
				c0.238,0,0.433-0.083,0.588-0.249c0.154-0.166,0.232-0.412,0.232-0.736v-4.683c0-0.288-0.078-0.515-0.232-0.677
				C196.919,474.624,196.724,474.543,196.486,474.543z"/>
			<path id="XMLID_949_" style="fill:#00718C;" d="M196.504,472.204c-0.217,0-0.409,0.073-0.573,0.223
				c-0.165,0.149-0.246,0.337-0.246,0.567c0,0.254,0.08,0.449,0.24,0.588c0.16,0.138,0.353,0.208,0.579,0.208
				c0.217,0,0.405-0.071,0.563-0.212c0.158-0.14,0.238-0.335,0.238-0.584c0-0.258-0.081-0.453-0.244-0.588
				C196.9,472.272,196.714,472.204,196.504,472.204z"/>
			<path id="XMLID_945_" style="fill:#00718C;" d="M203.626,474.543c-0.217,0-0.396,0.077-0.535,0.231
				c-0.139,0.154-0.208,0.372-0.208,0.652v0.221c-0.289-0.376-0.602-0.651-0.938-0.829c-0.337-0.175-0.734-0.264-1.193-0.264
				c-0.384,0-0.736,0.068-1.056,0.204c-0.321,0.138-0.604,0.34-0.849,0.609c-0.245,0.268-0.433,0.599-0.566,0.991
				c-0.133,0.392-0.199,0.831-0.199,1.317c0,0.653,0.108,1.228,0.327,1.728c0.217,0.498,0.529,0.886,0.934,1.163
				c0.406,0.276,0.88,0.415,1.422,0.415c0.45,0,0.839-0.091,1.166-0.272c0.327-0.182,0.614-0.447,0.864-0.797
				c-0.008,0.531-0.02,0.916-0.036,1.155c-0.016,0.24-0.07,0.465-0.164,0.674c-0.093,0.209-0.255,0.373-0.486,0.489
				c-0.232,0.117-0.557,0.176-0.977,0.176c-0.205,0-0.387-0.02-0.545-0.057c-0.159-0.038-0.294-0.095-0.406-0.171
				c-0.112-0.078-0.216-0.171-0.309-0.28c-0.093-0.108-0.183-0.217-0.27-0.323c-0.178-0.21-0.386-0.315-0.624-0.315
				c-0.189,0-0.352,0.062-0.486,0.188c-0.135,0.123-0.202,0.284-0.202,0.482c0,0.262,0.119,0.516,0.356,0.764
				c0.238,0.247,0.576,0.448,1.014,0.605c0.439,0.155,0.938,0.233,1.496,0.233c0.609,0,1.119-0.061,1.528-0.184
				c0.409-0.122,0.741-0.311,0.994-0.563c0.253-0.254,0.438-0.574,0.551-0.961c0.115-0.389,0.173-0.852,0.173-1.39v-4.706
				c0-0.384-0.051-0.678-0.155-0.882C204.146,474.646,203.938,474.543,203.626,474.543z M202.6,478.908
				c-0.151,0.291-0.346,0.508-0.586,0.653c-0.239,0.144-0.493,0.217-0.762,0.217c-0.455,0-0.826-0.168-1.113-0.505
				c-0.287-0.336-0.431-0.834-0.431-1.49c0-0.648,0.139-1.149,0.419-1.501c0.279-0.352,0.649-0.528,1.113-0.528
				c0.475,0,0.858,0.184,1.148,0.553c0.291,0.367,0.437,0.882,0.437,1.542C202.825,478.265,202.749,478.617,202.6,478.908z"/>
			<path id="XMLID_944_" style="fill:#00718C;" d="M210.978,475.61c-0.165-0.339-0.418-0.602-0.753-0.788
				c-0.337-0.187-0.718-0.279-1.146-0.279c-0.439,0-0.828,0.088-1.166,0.264c-0.338,0.177-0.65,0.452-0.935,0.828v-0.195
				c0-0.193-0.034-0.358-0.104-0.493c-0.069-0.134-0.162-0.234-0.276-0.302c-0.114-0.068-0.244-0.102-0.387-0.102
				c-0.233,0-0.416,0.076-0.552,0.229c-0.134,0.152-0.201,0.383-0.201,0.691v4.683c0,0.316,0.076,0.56,0.226,0.73
				c0.15,0.17,0.342,0.255,0.576,0.255c0.241,0,0.438-0.082,0.59-0.246c0.152-0.164,0.228-0.411,0.228-0.739v-2.03
				c0-0.66,0.04-1.11,0.119-1.353c0.11-0.3,0.284-0.537,0.522-0.71c0.237-0.172,0.5-0.258,0.788-0.258
				c0.444,0,0.74,0.143,0.888,0.425c0.148,0.282,0.223,0.691,0.223,1.226v2.7c0,0.316,0.074,0.56,0.226,0.73
				c0.15,0.17,0.346,0.255,0.587,0.255c0.238,0,0.431-0.083,0.578-0.249c0.149-0.166,0.224-0.412,0.224-0.736v-3.016
				c0-0.357-0.017-0.648-0.048-0.878C211.155,476.023,211.085,475.809,210.978,475.61z"/>
			<path id="XMLID_939_" style="fill:#00718C;" d="M217.821,478.054c0.233-0.122,0.35-0.385,0.35-0.793
				c0-0.438-0.113-0.87-0.338-1.294c-0.226-0.423-0.565-0.769-1.019-1.035c-0.453-0.268-0.996-0.399-1.628-0.399
				c-0.487,0-0.93,0.077-1.33,0.233c-0.4,0.156-0.736,0.381-1.009,0.674c-0.273,0.293-0.481,0.643-0.624,1.054
				c-0.142,0.409-0.213,0.853-0.213,1.332c0,1.017,0.289,1.822,0.866,2.415c0.578,0.593,1.387,0.891,2.428,0.891
				c0.455,0,0.858-0.06,1.208-0.178c0.351-0.12,0.64-0.268,0.872-0.448c0.232-0.181,0.405-0.368,0.52-0.565
				c0.114-0.196,0.172-0.366,0.172-0.514c0-0.166-0.051-0.294-0.154-0.386c-0.103-0.09-0.238-0.137-0.404-0.137
				c-0.154,0-0.273,0.036-0.356,0.107c-0.201,0.19-0.366,0.34-0.492,0.451c-0.128,0.111-0.266,0.216-0.415,0.313
				c-0.151,0.098-0.307,0.167-0.466,0.214c-0.161,0.044-0.338,0.067-0.532,0.067c-0.288,0-0.553-0.07-0.792-0.213
				c-0.239-0.143-0.431-0.355-0.575-0.636c-0.145-0.281-0.219-0.605-0.223-0.974h3.169
				C217.26,478.234,217.588,478.174,217.821,478.054z M213.666,477.315c0.056-0.547,0.212-0.96,0.471-1.238
				c0.259-0.28,0.591-0.418,0.995-0.418c0.423,0,0.765,0.137,1.024,0.411c0.259,0.275,0.409,0.69,0.448,1.245H213.666z"/>
			<path id="XMLID_936_" style="fill:#00718C;" d="M224.206,472.134c-0.245,0-0.434,0.085-0.567,0.255
				c-0.132,0.17-0.199,0.421-0.199,0.753v2.393c-0.304-0.332-0.617-0.579-0.938-0.739c-0.32-0.159-0.714-0.24-1.181-0.24
				c-0.808,0-1.458,0.283-1.953,0.849c-0.495,0.566-0.741,1.355-0.741,2.369c0,0.479,0.062,0.923,0.187,1.335
				c0.125,0.412,0.308,0.77,0.549,1.074c0.241,0.305,0.527,0.539,0.857,0.703c0.33,0.164,0.689,0.246,1.077,0.246
				c0.293,0,0.563-0.04,0.81-0.122c0.248-0.08,0.476-0.199,0.689-0.356c0.211-0.155,0.426-0.358,0.643-0.607v0.16
				c0,0.297,0.072,0.525,0.217,0.685c0.145,0.16,0.328,0.24,0.549,0.24c0.226,0,0.41-0.077,0.552-0.231
				c0.143-0.154,0.213-0.386,0.213-0.694v-7.147c0-0.305-0.065-0.534-0.199-0.69C224.641,472.212,224.452,472.134,224.206,472.134z
				 M223.141,478.975c-0.14,0.306-0.328,0.533-0.564,0.682c-0.235,0.148-0.495,0.223-0.781,0.223c-0.281,0-0.54-0.078-0.776-0.236
				c-0.238-0.154-0.425-0.387-0.562-0.695c-0.137-0.31-0.205-0.683-0.205-1.122c0-0.415,0.064-0.78,0.193-1.096
				c0.129-0.314,0.31-0.556,0.543-0.724c0.233-0.168,0.499-0.252,0.795-0.252c0.285,0,0.547,0.082,0.787,0.245
				c0.239,0.165,0.43,0.402,0.57,0.713c0.14,0.311,0.21,0.682,0.21,1.113C223.352,478.283,223.281,478.667,223.141,478.975z"/>
			<path id="XMLID_933_" style="fill:#00718C;" d="M233.586,474.938c-0.406-0.255-0.877-0.383-1.415-0.383
				c-0.467,0-0.859,0.084-1.175,0.252c-0.317,0.168-0.627,0.411-0.932,0.728v-2.476c0-0.297-0.068-0.524-0.202-0.686
				c-0.135-0.159-0.326-0.239-0.576-0.239c-0.237,0-0.423,0.084-0.555,0.252c-0.133,0.168-0.198,0.416-0.198,0.744v7.075
				c0,0.305,0.068,0.535,0.205,0.692c0.136,0.156,0.319,0.233,0.549,0.233c0.226,0,0.412-0.077,0.558-0.233
				c0.146-0.157,0.22-0.388,0.22-0.692v-0.16c0.178,0.205,0.322,0.36,0.43,0.463c0.109,0.103,0.241,0.203,0.395,0.3
				c0.154,0.098,0.341,0.175,0.561,0.234c0.22,0.06,0.454,0.089,0.704,0.089c0.407,0,0.781-0.082,1.119-0.246
				c0.338-0.164,0.626-0.397,0.864-0.698c0.237-0.3,0.418-0.655,0.543-1.064c0.124-0.41,0.187-0.859,0.187-1.35
				c0-0.665-0.112-1.241-0.336-1.725C234.305,475.564,233.991,475.193,233.586,474.938z M232.796,479.348
				c-0.295,0.354-0.646,0.531-1.053,0.531c-0.479,0-0.866-0.174-1.161-0.521c-0.295-0.346-0.442-0.841-0.442-1.486
				c0-0.44,0.069-0.818,0.207-1.136c0.138-0.319,0.328-0.563,0.57-0.73c0.24-0.168,0.516-0.252,0.825-0.252
				c0.3,0,0.563,0.084,0.789,0.252c0.225,0.168,0.399,0.406,0.521,0.716c0.123,0.308,0.184,0.677,0.184,1.103
				C233.238,478.486,233.09,478.993,232.796,479.348z"/>
			<path id="XMLID_931_" style="fill:#00718C;" d="M240.529,474.641c-0.112-0.065-0.23-0.098-0.353-0.098
				c-0.171,0-0.302,0.029-0.395,0.09c-0.093,0.058-0.181,0.173-0.264,0.344c-0.083,0.17-0.176,0.406-0.279,0.705l-1.3,3.71
				l-1.371-3.988c-0.091-0.277-0.195-0.489-0.314-0.638c-0.119-0.148-0.295-0.223-0.529-0.223c-0.135,0-0.264,0.035-0.389,0.107
				c-0.124,0.07-0.222,0.166-0.294,0.285c-0.071,0.117-0.107,0.246-0.107,0.385c0,0.131,0.062,0.341,0.184,0.629l1.995,5.022
				l-0.148,0.362c-0.111,0.265-0.208,0.466-0.294,0.601c-0.085,0.139-0.181,0.234-0.288,0.289c-0.107,0.056-0.254,0.084-0.44,0.084
				c-0.075,0-0.163-0.013-0.266-0.036c-0.083-0.024-0.168-0.036-0.256-0.036c-0.221,0-0.388,0.051-0.501,0.151
				c-0.113,0.101-0.169,0.245-0.169,0.431c0,0.272,0.119,0.461,0.356,0.564c0.237,0.103,0.593,0.153,1.068,0.153
				c0.487,0,0.873-0.073,1.161-0.223c0.287-0.147,0.517-0.361,0.691-0.638c0.174-0.277,0.353-0.659,0.535-1.146l2.113-5.531
				c0.051-0.143,0.095-0.283,0.13-0.421c0.037-0.14,0.061-0.246,0.078-0.321c0-0.123-0.032-0.239-0.093-0.35
				C240.729,474.794,240.642,474.706,240.529,474.641z"/>
		</g>
		<g id="XMLID_365_">
			<g id="XMLID_380_">
				<path id="XMLID_928_" style="fill:#00718C;" d="M262.93,472.129c-0.533,0-0.954,0.068-1.26,0.204
					c-0.308,0.137-0.527,0.354-0.654,0.652c-0.13,0.301-0.191,0.702-0.191,1.211v0.487h-0.387c-0.543,0-0.815,0.191-0.815,0.582
					c0,0.174,0.065,0.315,0.196,0.423c0.132,0.111,0.316,0.164,0.559,0.164h0.446v4.294c0,0.318,0.074,0.563,0.228,0.729
					c0.154,0.17,0.344,0.254,0.573,0.254c0.243,0,0.438-0.084,0.589-0.254c0.155-0.167,0.23-0.411,0.23-0.729v-4.294h0.396
					c0.291,0,0.517-0.035,0.681-0.107c0.166-0.071,0.245-0.24,0.245-0.503c0-0.373-0.307-0.559-0.926-0.559h-0.396v-0.387
					c0-0.321,0.043-0.567,0.122-0.739c0.087-0.172,0.273-0.26,0.565-0.26c0.108,0,0.241,0.014,0.39,0.034
					c0.155,0.026,0.268,0.038,0.33,0.038c0.134,0,0.252-0.055,0.348-0.16c0.102-0.107,0.15-0.235,0.15-0.385
					C264.35,472.358,263.879,472.129,262.93,472.129z"/>
				<path id="XMLID_926_" style="fill:#00718C;" d="M268.089,474.795c-0.32-0.171-0.648-0.255-0.99-0.255
					c-0.342,0-0.61,0.084-0.818,0.255c-0.202,0.171-0.4,0.421-0.592,0.755c-0.015-0.334-0.08-0.584-0.199-0.755
					c-0.119-0.171-0.313-0.255-0.583-0.255c-0.525,0-0.788,0.364-0.788,1.093v4.514c0,0.323,0.078,0.568,0.226,0.732
					c0.149,0.169,0.34,0.251,0.579,0.251c0.236,0,0.432-0.081,0.586-0.247c0.15-0.163,0.233-0.41,0.233-0.736v-1.356
					c0-0.486,0.014-0.899,0.045-1.238c0.033-0.337,0.09-0.631,0.17-0.878c0.084-0.243,0.201-0.425,0.353-0.554
					c0.149-0.122,0.345-0.186,0.582-0.186c0.172,0,0.374,0.036,0.602,0.108c0.227,0.073,0.371,0.112,0.434,0.112
					c0.157,0,0.304-0.064,0.44-0.194c0.135-0.126,0.204-0.292,0.204-0.488C268.571,475.192,268.411,474.966,268.089,474.795z"/>
				<path id="XMLID_922_" style="fill:#00718C;" d="M274.176,478.052c0.233-0.122,0.351-0.385,0.351-0.791
					c0-0.44-0.112-0.87-0.339-1.296c-0.222-0.423-0.565-0.77-1.018-1.033c-0.453-0.27-0.997-0.403-1.629-0.403
					c-0.488,0-0.931,0.078-1.329,0.232c-0.402,0.157-0.735,0.381-1.008,0.675c-0.275,0.295-0.484,0.644-0.624,1.055
					c-0.145,0.41-0.218,0.854-0.218,1.333c0,1.017,0.293,1.823,0.87,2.418c0.576,0.593,1.385,0.889,2.429,0.889
					c0.453,0,0.857-0.061,1.207-0.179c0.349-0.117,0.64-0.269,0.874-0.446c0.232-0.182,0.404-0.368,0.522-0.566
					c0.111-0.194,0.167-0.365,0.167-0.512c0-0.167-0.048-0.294-0.152-0.386c-0.104-0.093-0.237-0.139-0.405-0.139
					c-0.152,0-0.271,0.038-0.355,0.108c-0.202,0.189-0.367,0.34-0.493,0.449c-0.128,0.113-0.264,0.218-0.415,0.313
					c-0.15,0.097-0.307,0.17-0.466,0.213c-0.16,0.048-0.336,0.069-0.531,0.069c-0.29,0-0.552-0.07-0.792-0.212
					c-0.24-0.145-0.431-0.357-0.578-0.636c-0.145-0.28-0.216-0.606-0.222-0.974h3.171
					C273.615,478.233,273.942,478.173,274.176,478.052z M270.02,477.313c0.055-0.546,0.213-0.957,0.472-1.236
					c0.26-0.28,0.592-0.418,0.995-0.418c0.426,0,0.764,0.136,1.024,0.412c0.261,0.273,0.407,0.688,0.446,1.242H270.02z"/>
				<path id="XMLID_919_" style="fill:#00718C;" d="M280.916,478.052c0.232-0.122,0.352-0.385,0.352-0.791
					c0-0.44-0.116-0.87-0.341-1.296c-0.222-0.423-0.564-0.77-1.013-1.033c-0.46-0.27-1.003-0.403-1.634-0.403
					c-0.486,0-0.932,0.078-1.33,0.232c-0.4,0.157-0.736,0.381-1.009,0.675c-0.273,0.295-0.48,0.644-0.622,1.055
					c-0.145,0.41-0.218,0.854-0.218,1.333c0,1.017,0.291,1.823,0.868,2.418c0.58,0.593,1.387,0.889,2.43,0.889
					c0.453,0,0.859-0.061,1.208-0.179c0.348-0.117,0.641-0.269,0.872-0.446c0.234-0.182,0.408-0.368,0.518-0.566
					c0.116-0.194,0.171-0.365,0.171-0.512c0-0.167-0.047-0.294-0.15-0.386c-0.104-0.093-0.238-0.139-0.406-0.139
					c-0.151,0-0.27,0.038-0.355,0.108c-0.202,0.189-0.367,0.34-0.492,0.449c-0.127,0.113-0.264,0.218-0.415,0.313
					c-0.152,0.097-0.307,0.17-0.469,0.213c-0.157,0.048-0.335,0.069-0.527,0.069c-0.291,0-0.556-0.07-0.795-0.212
					c-0.238-0.145-0.431-0.357-0.575-0.636c-0.144-0.28-0.218-0.606-0.222-0.974h3.17
					C280.354,478.233,280.682,478.173,280.916,478.052z M276.762,477.313c0.053-0.546,0.211-0.957,0.47-1.236
					c0.261-0.28,0.592-0.418,0.995-0.418c0.425,0,0.764,0.136,1.026,0.412c0.257,0.273,0.407,0.688,0.446,1.242H276.762z"/>
				<path id="XMLID_390_" style="fill:#00718C;" d="M286.927,474.938c-0.42-0.257-0.883-0.387-1.379-0.387
					c-0.415,0-0.79,0.09-1.114,0.268c-0.331,0.176-0.648,0.452-0.952,0.827v-0.194c0-0.297-0.071-0.52-0.218-0.678
					c-0.144-0.155-0.329-0.233-0.56-0.233c-0.233,0-0.419,0.078-0.554,0.228c-0.133,0.154-0.199,0.382-0.199,0.691v6.995
					c0,0.354,0.051,0.62,0.145,0.807c0.102,0.183,0.301,0.274,0.607,0.274c0.517,0,0.777-0.358,0.777-1.068v-2.434
					c0.286,0.358,0.586,0.635,0.9,0.817c0.314,0.187,0.704,0.279,1.166,0.279c0.385,0,0.741-0.076,1.079-0.228
					c0.334-0.152,0.622-0.372,0.868-0.653c0.245-0.283,0.44-0.632,0.58-1.05c0.14-0.418,0.21-0.878,0.21-1.376
					c0-0.677-0.122-1.261-0.366-1.758C287.676,475.571,287.346,475.195,286.927,474.938z M286.45,478.94
					c-0.137,0.313-0.32,0.546-0.552,0.704c-0.229,0.153-0.48,0.233-0.748,0.233c-0.454,0-0.828-0.179-1.133-0.536
					c-0.307-0.358-0.46-0.862-0.46-1.504c0-0.687,0.155-1.204,0.462-1.558c0.307-0.35,0.685-0.527,1.131-0.527
					c0.281,0,0.54,0.083,0.77,0.247c0.229,0.163,0.411,0.398,0.542,0.705c0.13,0.306,0.196,0.674,0.196,1.101
					C286.658,478.248,286.589,478.627,286.45,478.94z"/>
				<path id="XMLID_389_" style="fill:#00718C;" d="M289.9,474.54c-0.238,0-0.428,0.079-0.58,0.244
					c-0.146,0.163-0.222,0.403-0.222,0.722v4.642c0,0.313,0.076,0.555,0.222,0.729c0.152,0.17,0.342,0.254,0.58,0.254
					s0.432-0.082,0.588-0.251c0.154-0.164,0.231-0.409,0.231-0.731v-4.688c0-0.286-0.077-0.512-0.231-0.675
					C290.332,474.619,290.139,474.54,289.9,474.54z"/>
				<path id="XMLID_388_" style="fill:#00718C;" d="M289.917,472.199c-0.217,0-0.407,0.076-0.571,0.223
					c-0.166,0.149-0.247,0.339-0.247,0.568c0,0.253,0.08,0.447,0.242,0.586c0.158,0.138,0.35,0.209,0.576,0.209
					c0.22,0,0.408-0.071,0.566-0.21c0.157-0.14,0.236-0.335,0.236-0.585c0-0.257-0.082-0.454-0.244-0.591
					C290.314,472.267,290.13,472.199,289.917,472.199z"/>
				<path id="XMLID_387_" style="fill:#00718C;" d="M297.258,479.569l-1.662-2.614l0.861-0.788c0.438-0.395,0.658-0.714,0.658-0.951
					c0-0.192-0.068-0.354-0.2-0.483c-0.138-0.128-0.306-0.192-0.509-0.192c-0.169,0-0.313,0.043-0.432,0.13
					c-0.121,0.086-0.29,0.251-0.517,0.486l-1.822,1.913v-3.933c0-0.329-0.074-0.581-0.221-0.751
					c-0.147-0.171-0.344-0.257-0.593-0.257c-0.256,0-0.457,0.093-0.596,0.283c-0.136,0.188-0.207,0.462-0.207,0.82v6.914
					c0,0.323,0.073,0.568,0.215,0.732c0.141,0.169,0.339,0.251,0.588,0.251c0.213,0,0.405-0.084,0.566-0.254
					c0.164-0.167,0.247-0.406,0.247-0.719v-1.29l0.88-0.83l1.428,2.352c0.182,0.278,0.329,0.472,0.435,0.58
					c0.107,0.109,0.261,0.16,0.459,0.16c0.226,0,0.412-0.073,0.553-0.222c0.142-0.15,0.214-0.351,0.214-0.609
					c0-0.089-0.029-0.189-0.082-0.288C297.47,479.909,297.379,479.765,297.258,479.569z"/>
				<path id="XMLID_386_" style="fill:#00718C;" d="M299.45,479.343c-0.251,0-0.459,0.087-0.63,0.262
					c-0.171,0.173-0.257,0.381-0.257,0.622c0,0.287,0.091,0.51,0.269,0.665c0.179,0.159,0.389,0.238,0.633,0.238
					c0.237,0,0.444-0.079,0.624-0.241c0.175-0.157,0.264-0.38,0.264-0.662c0-0.243-0.089-0.454-0.264-0.626
					C299.909,479.43,299.698,479.343,299.45,479.343z"/>
				<path id="XMLID_385_" style="fill:#00718C;" d="M306.835,478.416c-0.166,0-0.308,0.055-0.422,0.156
					c-0.113,0.104-0.219,0.245-0.318,0.427c-0.177,0.31-0.381,0.538-0.616,0.69c-0.23,0.149-0.509,0.225-0.834,0.225
					c-0.24,0-0.463-0.045-0.666-0.141c-0.201-0.094-0.372-0.229-0.516-0.409c-0.144-0.18-0.252-0.398-0.325-0.652
					c-0.075-0.256-0.114-0.537-0.114-0.842c0-0.646,0.147-1.161,0.44-1.533c0.293-0.375,0.682-0.561,1.158-0.561
					c0.333,0,0.606,0.075,0.82,0.227c0.219,0.147,0.425,0.376,0.623,0.674c0.108,0.158,0.209,0.27,0.299,0.339
					c0.09,0.069,0.201,0.104,0.338,0.104c0.202,0,0.377-0.068,0.524-0.203c0.143-0.135,0.214-0.3,0.214-0.491
					c0-0.192-0.062-0.397-0.192-0.617c-0.127-0.218-0.315-0.424-0.556-0.62c-0.245-0.192-0.54-0.352-0.891-0.474
					c-0.353-0.124-0.736-0.185-1.156-0.185c-0.674,0-1.26,0.139-1.747,0.419c-0.485,0.278-0.858,0.673-1.113,1.183
					c-0.259,0.511-0.387,1.098-0.387,1.765c0,0.982,0.281,1.765,0.841,2.35c0.563,0.582,1.345,0.876,2.349,0.876
					c0.469,0,0.894-0.065,1.269-0.191c0.377-0.126,0.688-0.295,0.935-0.503c0.248-0.207,0.434-0.425,0.553-0.655
					c0.122-0.23,0.183-0.446,0.183-0.647c0-0.169-0.066-0.331-0.198-0.481C307.198,478.493,307.033,478.416,306.835,478.416z"/>
				<path id="XMLID_382_" style="fill:#00718C;" d="M313.646,475.453c-0.288-0.291-0.628-0.518-1.026-0.675
					c-0.4-0.16-0.847-0.238-1.336-0.238c-0.482,0-0.924,0.078-1.326,0.233c-0.398,0.158-0.737,0.38-1.02,0.669
					c-0.281,0.288-0.498,0.637-0.648,1.045c-0.146,0.408-0.225,0.857-0.225,1.349c0,0.485,0.076,0.93,0.22,1.332
					c0.151,0.401,0.369,0.75,0.657,1.048c0.284,0.292,0.626,0.521,1.016,0.676c0.393,0.159,0.835,0.239,1.326,0.239
					c0.492,0,0.937-0.08,1.336-0.234c0.394-0.157,0.735-0.382,1.02-0.675c0.286-0.291,0.502-0.642,0.656-1.05
					c0.145-0.408,0.222-0.854,0.222-1.336c0-0.488-0.075-0.932-0.221-1.339C314.148,476.096,313.933,475.749,313.646,475.453z
					 M312.455,479.368c-0.29,0.373-0.682,0.558-1.171,0.558c-0.324,0-0.604-0.086-0.846-0.253c-0.24-0.168-0.424-0.409-0.554-0.729
					c-0.129-0.316-0.193-0.685-0.193-1.108c0-0.428,0.066-0.803,0.197-1.124c0.13-0.321,0.314-0.564,0.556-0.728
					c0.242-0.163,0.522-0.245,0.84-0.245c0.489,0,0.881,0.182,1.171,0.555c0.289,0.367,0.436,0.881,0.436,1.542
					C312.891,478.486,312.744,478.999,312.455,479.368z"/>
				<path id="XMLID_381_" style="fill:#00718C;" d="M323.569,474.814c-0.32-0.173-0.705-0.263-1.146-0.263
					c-0.38,0-0.726,0.081-1.038,0.241c-0.314,0.161-0.607,0.408-0.882,0.738c-0.191-0.326-0.431-0.572-0.725-0.735
					c-0.292-0.162-0.642-0.244-1.048-0.244c-0.395,0-0.748,0.079-1.07,0.241c-0.319,0.156-0.62,0.403-0.903,0.738v-0.153
					c0-0.261-0.073-0.466-0.221-0.616c-0.15-0.145-0.335-0.221-0.558-0.221c-0.226,0-0.412,0.078-0.556,0.238
					c-0.14,0.157-0.21,0.389-0.21,0.694v4.636c0,0.337,0.078,0.592,0.235,0.765c0.156,0.171,0.358,0.258,0.604,0.258
					c0.248,0,0.447-0.087,0.603-0.258c0.149-0.173,0.227-0.428,0.227-0.765v-2.189c0-0.683,0.086-1.206,0.253-1.566
					c0.169-0.369,0.517-0.55,1.048-0.55c0.264,0,0.459,0.071,0.582,0.22c0.121,0.142,0.197,0.33,0.226,0.552
					c0.027,0.226,0.04,0.544,0.04,0.952v2.581c0,0.342,0.078,0.594,0.232,0.768c0.148,0.17,0.35,0.255,0.595,0.255
					c0.254,0,0.454-0.085,0.61-0.255c0.156-0.174,0.23-0.426,0.23-0.768v-2.153c0-0.694,0.063-1.178,0.178-1.452
					c0.109-0.209,0.259-0.383,0.451-0.508c0.191-0.125,0.395-0.191,0.608-0.191c0.264,0,0.463,0.071,0.596,0.215
					c0.128,0.142,0.209,0.318,0.238,0.528c0.029,0.21,0.044,0.486,0.044,0.837v2.725c0,0.337,0.078,0.592,0.234,0.765
					c0.157,0.171,0.356,0.258,0.604,0.258c0.252,0,0.458-0.085,0.611-0.255c0.154-0.174,0.229-0.426,0.229-0.768v-3.163
					c0-0.629-0.068-1.091-0.206-1.386C324.128,475.237,323.889,474.987,323.569,474.814z"/>
			</g>
			<g id="XMLID_366_">
				<path id="XMLID_379_" style="fill:#00718C;" d="M245.273,477.443c-0.001-0.003-0.001-0.006-0.001-0.011
					C245.272,477.438,245.272,477.44,245.273,477.443z"/>
				<path id="XMLID_378_" style="fill:#00718C;" d="M245.355,477.961c0.001,0,0.001,0,0.001,0c-0.03-0.146-0.055-0.294-0.073-0.438
					C245.301,477.669,245.326,477.816,245.355,477.961z"/>
				<path id="XMLID_377_" style="fill:#00718C;" d="M245.891,479.466c-0.003-0.007-0.006-0.014-0.01-0.021
					C245.885,479.452,245.888,479.459,245.891,479.466z"/>
				<path id="XMLID_376_" style="fill:#00718C;" d="M245.84,479.365c-0.014-0.027-0.027-0.056-0.04-0.083
					C245.812,479.311,245.826,479.338,245.84,479.365z"/>
				<path id="XMLID_375_" style="fill:#00718C;" d="M245.505,478.541c0.08,0.25,0.175,0.492,0.286,0.724
					c-0.113-0.236-0.206-0.478-0.284-0.724H245.505z"/>
				<path id="XMLID_374_" style="fill:#00718C;" d="M250.736,470.682l-0.076-0.26c0.299-0.063,0.523-0.329,0.523-0.647
					c0-0.363-0.296-0.659-0.66-0.659c-0.365,0-0.66,0.296-0.66,0.659c0,0.317,0.225,0.584,0.522,0.647l0.084,0.289
					c-1.021,0.141-1.834,0.539-1.834,0.539l0.144,0.44c0.617-0.206,1.153-0.331,1.64-0.383c0.476-0.051,0.833-0.073,1.126-0.073
					c0.313,0,0.545,0.025,0.81,0.069l0.075-0.476C252.43,470.828,251.697,470.603,250.736,470.682z"/>
				<path id="XMLID_373_" style="fill:#00718C;" d="M245.453,473.189c-0.017,0.023-0.497,0.465-0.876,1.279
					c-0.016-0.025-0.035-0.051-0.056-0.074c-0.114-0.124-0.272-0.188-0.474-0.184c-0.003,0-0.006,0-0.01,0
					c-0.124,0-0.21-0.042-0.266-0.093c0.056-0.07,0.089-0.16,0.089-0.258c0-0.23-0.188-0.419-0.419-0.419
					c-0.23,0-0.417,0.189-0.417,0.419c0,0.231,0.188,0.417,0.417,0.417c0.037,0,0.071-0.005,0.105-0.012
					c0.102,0.113,0.266,0.214,0.504,0.209c0.124-0.002,0.214,0.03,0.273,0.097c0.07,0.075,0.093,0.185,0.1,0.267
					c-0.001,0.002-0.001,0.004-0.002,0.004c-0.272,0.743-0.194,1.668-0.194,1.668l0.661,0.025c0.014-0.336,0.061-0.925,0.232-1.393
					c0.329-0.906,0.741-1.472,0.757-1.496l0.004-0.005c0.024-0.031,0.047-0.06,0.071-0.089l-0.196-0.142L245.453,473.189z"/>
				<path id="XMLID_372_" style="fill:#00718C;" d="M257.294,471.787c-0.23,0-0.419,0.186-0.419,0.417
					c0,0.037,0.006,0.071,0.016,0.104c-0.115,0.104-0.215,0.267-0.211,0.506c0.002,0.123-0.03,0.213-0.097,0.273
					c-0.053,0.047-0.119,0.071-0.185,0.087c-0.492-0.689-1.098-1.109-1.098-1.109l-0.474,0.509c0.358,0.326,0.725,0.734,1.08,1.244
					c0.246,0.352,0.499,0.806,0.71,1.258l0.64-0.304c0,0-0.292-0.722-0.703-1.369c0.071-0.025,0.143-0.063,0.206-0.12
					c0.126-0.113,0.188-0.272,0.184-0.474c-0.001-0.13,0.041-0.218,0.093-0.275c0.071,0.054,0.16,0.089,0.258,0.089
					c0.232,0,0.418-0.188,0.418-0.419C257.712,471.974,257.525,471.787,257.294,471.787z"/>
				<path id="XMLID_371_" style="fill:#00718C;" d="M255.633,477.537c-0.88,0.429-2.33,0.996-4.236,1.262
					c-0.749,0.104-1.475,0.143-2.143,0.143c-0.869,0-1.638-0.064-2.227-0.14c-0.672-0.084-1.198-0.188-1.52-0.261
					c0.078,0.245,0.171,0.487,0.284,0.724c0.002,0.006,0.005,0.013,0.008,0.018c0.013,0.027,0.027,0.056,0.04,0.083
					c0.014,0.027,0.027,0.055,0.041,0.079c0.004,0.008,0.007,0.015,0.01,0.021c0.19,0.357,0.417,0.684,0.676,0.968
					c0.899,0.984,1.816,1.139,1.825,1.141l0.015,0.002l0.013,0.005c0.009,0.003,0.821,0.265,2.057,0.265
					c1.215,0,2.409-0.244,3.545-0.729c0.842-0.431,1.639-1.085,2.033-1.668c0.306-0.452,0.526-0.934,0.656-1.434
					c0.069-0.266,0.124-0.692,0.092-1.141C256.555,477.042,256.163,477.279,255.633,477.537z"/>
				<path id="XMLID_367_" style="fill:#00718C;" d="M252.322,471.655c-0.265-0.044-0.477-0.068-0.777-0.068
					c-0.279,0-0.626,0.022-1.088,0.07c-0.465,0.049-0.982,0.171-1.583,0.373c-0.842,0.282-1.604,0.725-2.204,1.28l-0.02,0.019
					c-0.089,0.081-0.275,0.254-0.488,0.525c-0.025,0.037-0.408,0.578-0.709,1.408c-0.226,0.621-0.216,1.526-0.216,1.537v0.001
					c0,0.212,0.013,0.423,0.036,0.632c0,0.005,0,0.008,0.001,0.011c0.003,0.027,0.007,0.053,0.01,0.08
					c0.019,0.144,0.043,0.291,0.074,0.438c0.438,0.112,3.048,0.721,5.967,0.314c1.829-0.254,3.218-0.795,4.061-1.204
					c0.701-0.34,1.151-0.647,1.325-0.773c-0.173-0.643-0.651-1.65-1.089-2.278C254.367,472.228,253.016,471.77,252.322,471.655z
					 M248.679,476.914c-0.972,0-1.759-0.787-1.759-1.76c0-0.972,0.788-1.76,1.759-1.76c0.973,0,1.761,0.788,1.761,1.76
					C250.439,476.127,249.651,476.914,248.679,476.914z M253.828,475.617c-0.601,0-1.088-0.489-1.088-1.09
					c0-0.603,0.487-1.09,1.088-1.09s1.09,0.487,1.09,1.09C254.918,475.128,254.429,475.617,253.828,475.617z"/>
			</g>
		</g>
	</g>
</g>
</svg>
